# xmcd
#
# Track frame offsets:
# 150
# 11297
# 26397
# 39692
# 52802
# 63952
# 74630
# 87050
# 100179
# 113175
#
# Disc length: 1662 seconds
#
#
# Revision: 0
# Processed by: cddbd v1.5.1PL2 Copyright (c) Steve Scherf et al.
# Submitted via: FreeRIP 2.944 
#
DISCID=75067c0a
DTITLE=les gilliam - classics and creations
DYEAR=1900
DGENRE=western
TTITLE0=Im going away
TTITLE1=clutching each other
TTITLE2=prince
TTITLE3=chained to a memory
TTITLE4=supper time
TTITLE5=Im my own grandpa
TTITLE6=very truly yours
TTITLE7=riding down the cavyon
TTITLE8=crawl across missouri
TTITLE9=preacher and the bear
EXTD=
EXTT0=
EXTT1=
EXTT2=
EXTT3=
EXTT4=
EXTT5=
EXTT6=
EXTT7=
EXTT8=
EXTT9=
PLAYORDER=
